<svg xmlns="http://www.w3.org/2000/svg" viewBox="0 0 64 64" role="img" aria-label="PicBed Switcher">
  <defs>
    <linearGradient id="mark" x1="12" y1="10" x2="52" y2="54" gradientUnits="userSpaceOnUse">
      <stop offset="0" stop-color="#2563eb"/>
      <stop offset="1" stop-color="#0f766e"/>
    </linearGradient>
  </defs>
  <rect width="64" height="64" rx="16" fill="url(#mark)"/>
  <g transform="translate(12 12) scale(1.6667)" fill="none" stroke="#fff" stroke-width="2.6" stroke-linecap="round" stroke-linejoin="round">
    <path d="M10.3 21H5a2 2 0 0 1-2-2V5a2 2 0 0 1 2-2h14a2 2 0 0 1 2 2v10l-3.1-3.1a2 2 0 0 0-2.814.014L6 21"/>
    <path d="m14 19.5 3-3 3 3"/>
    <path d="M17 22v-5.5"/>
    <circle cx="9" cy="9" r="2"/>
  </g>
</svg>
